# xmcd
#
# Track frame offsets:
#	150
#	12895
#	27947
#	40377
#	59567
#	70812
#	83422
#	95095
#	108204
#	125077
#	138205
#	149685
#	165385
#	175942
#	189822
#	201947
#	215157
#	228980
#
# Disc length: 3200 seconds
#
# Revision: 0
# Processed by: cddbd v1.4PL0 Copyright (c) Steve Scherf et al.
# Submitted via: dBpowerAMP V4.0
#
DISCID=fe0c7e12
DTITLE=Various Artist - The Best of Country Music
DYEAR=1900
DGENRE=Country
TTITLE0=Rose Garden - The Band Road
TTITLE1=Rhinestone Cowboy - The Band Road
TTITLE2=Jambalaya - The Band Road
TTITLE3=Coward of the country - The Band Road
TTITLE4=Oh Suzanna - The Band Road
TTITLE5=Fine country singin - The Band Road
TTITLE6=Stand by your man - The Band Road
TTITLE7=DIVORCE - The Band Road
TTITLE8=Big John - The Band Road
TTITLE9=Red Light Lady Love - The Band Road
TTITLE10=Some Broken Hearts never mind - The Band Road
TTITLE11=Blanket on the ground - The Band Road
TTITLE12=It's only make believe - Ronnie McDowell
TTITLE13=Smokey places - Ronnie McDowell
TTITLE14=Burning Bridges - Ronnie McDowell
TTITLE15=Give me a shoulder - The Band Road
TTITLE16=All that country loving - The Band Road
TTITLE17=A thing called love - The Band Road
EXTD=
EXTT0=
EXTT1=
EXTT2=
EXTT3=
EXTT4=
EXTT5=
EXTT6=
EXTT7=
EXTT8=
EXTT9=
EXTT10=
EXTT11=
EXTT12=
EXTT13=
EXTT14=
EXTT15=
EXTT16=
EXTT17=
PLAYORDER=
